<svg id="svg" version="1.1" width="400" height="400" viewBox="0 0 400 400" xmlns="http://www.w3.org/2000/svg" xmlns:xlink="http://www.w3.org/1999/xlink"><g id="svgg"><path id="path0" d="M163.796 64.075 C 131.013 73.831,113.486 92.563,108.243 123.445 C 107.636 127.017,107.156 276.591,107.744 278.860 C 107.974 279.745,108.037 279.656,108.740 277.462 C 113.196 263.558,125.004 253.506,145.933 245.798 C 155.388 242.316,157.541 241.407,160.195 239.774 C 164.345 237.220,167.337 233.813,168.763 230.018 C 170.404 225.648,170.335 229.481,170.335 143.034 L 170.335 62.520 169.617 62.538 C 169.222 62.548,166.603 63.240,163.796 64.075 M293.939 150.292 C 283.412 157.017,269.650 165.915,261.722 171.121 C 257.512 173.886,252.093 177.444,249.681 179.027 C 247.269 180.611,245.295 182.030,245.295 182.181 C 245.295 182.332,251.037 182.456,258.054 182.456 C 269.613 182.456,270.813 182.505,270.813 182.974 C 270.813 184.520,264.139 196.965,259.886 203.349 C 241.207 231.389,215.106 247.617,174.482 256.449 C 152.366 261.257,144.082 264.245,134.769 270.771 C 119.940 281.162,111.013 299.256,110.592 319.777 L 110.526 322.967 177.033 322.967 C 250.260 322.967,245.574 323.084,253.626 321.043 C 279.309 314.533,298.272 292.316,300.663 265.936 L 300.885 263.477 286.248 263.436 C 278.198 263.414,265.080 263.412,257.097 263.432 C 238.872 263.477,239.673 263.640,245.037 260.973 C 261.337 252.869,275.838 237.637,284.399 219.627 C 292.740 202.080,299.459 173.580,300.672 150.601 C 300.945 145.423,301.519 145.450,293.939 150.292 " stroke="none" fill="#fbfbfb" fill-rule="evenodd"></path><path id="path1" d="M 200,0 A 200,200 0 1,1 200,400 A 200,200 0 1,1 200,0 Z M170.335 143.034 C 170.335 229.481,170.404 225.648,168.763 230.018 C 167.337 233.813,164.345 237.220,160.195 239.774 C 157.541 241.407,155.388 242.316,145.933 245.798 C 125.004 253.506,113.196 263.558,108.740 277.462 C 108.037 279.656,107.974 279.745,107.744 278.860 C 107.156 276.591,107.636 127.017,108.243 123.445 C 113.031 95.242,128.502 76.796,155.891 66.633 C 159.447 65.314,168.671 62.562,169.617 62.538 L 170.335 62.520 170.335 143.034 M300.672 150.601 C 299.459 173.580,292.740 202.080,284.399 219.627 C 275.838 237.637,261.337 252.869,245.037 260.973 C 239.673 263.640,238.872 263.477,257.097 263.432 C 265.080 263.412,278.198 263.414,286.248 263.436 L 300.885 263.477 300.663 265.936 C 298.272 292.316,279.309 314.533,253.626 321.043 C 245.574 323.084,250.260 322.967,177.033 322.967 L 110.526 322.967 110.592 319.777 C 111.013 299.256,119.940 281.162,134.769 270.771 C 144.082 264.245,152.366 261.257,174.482 256.449 C 215.106 247.617,241.207 231.389,259.886 203.349 C 264.139 196.965,270.813 184.520,270.813 182.974 C 270.813 182.505,269.613 182.456,258.054 182.456 C 251.037 182.456,245.295 182.332,245.295 182.181 C 245.295 182.030,247.269 180.611,249.681 179.027 C 252.093 177.444,257.512 173.886,261.722 171.121 C 269.650 165.915,283.412 157.017,293.939 150.292 C 301.519 145.450,300.945 145.423,300.672 150.601 " stroke="none" fill="#145c44" fill-rule="evenodd"></path></g></svg>